<svg width="181" height="181" viewBox="0 0 181 181" fill="none" xmlns="http://www.w3.org/2000/svg">
<circle cx="90.1406" cy="90.4238" r="90" fill="#8EC73D"/>
<path d="M91.2881 26.0634L91.4174 24.4392C91.4691 23.7895 91.7924 23.259 92.3872 22.8475L95.7453 20.4309C96.2918 20.0501 96.5846 19.6146 96.6236 19.1245L96.6644 18.6116C96.6925 18.2582 96.627 18.0007 96.4679 17.8389C96.321 17.6666 96.0595 17.5655 95.6834 17.5356L95.085 17.4879C94.7203 17.4589 94.4575 17.5182 94.2966 17.666C94.1366 17.8024 94.0426 18.0472 94.0144 18.4006L93.9709 18.9477C93.9509 19.1984 93.8212 19.3143 93.5819 19.2952L92.1287 19.1795C91.8893 19.1604 91.7796 19.0255 91.7996 18.7748L91.8459 18.1935C91.9167 17.3045 92.2162 16.6401 92.7444 16.2004C93.2726 15.7607 93.9869 15.5767 94.8874 15.6484L96.1867 15.7519C97.0871 15.8236 97.7633 16.1183 98.2153 16.636C98.6673 17.1538 98.8579 17.8571 98.7871 18.7462L98.7327 19.43C98.6619 20.3191 98.2614 21.027 97.5313 21.5538L94.0993 24.0334C93.9525 24.1479 93.8733 24.2792 93.8615 24.4274L93.8397 24.7009L97.9258 25.0262C98.1651 25.0453 98.2753 25.1745 98.2562 25.4139L98.1609 26.6106C98.1419 26.85 98.0127 26.9601 97.7733 26.9411L91.6185 26.451C91.3792 26.432 91.269 26.3027 91.2881 26.0634Z" fill="white"/>
<path d="M106.428 22.8521L105.645 22.6635C105.355 22.594 105.105 22.6572 104.893 22.8532C104.693 23.0518 104.509 23.1311 104.342 23.091L102.958 22.7579C102.725 22.7017 102.635 22.5624 102.688 22.3401L103.96 17.0543C104.017 16.8208 104.161 16.7322 104.395 16.7884L110.198 18.1849C110.431 18.2411 110.52 18.3859 110.463 18.6194L110.158 19.8866C110.102 20.1201 109.957 20.2087 109.724 20.1525L105.689 19.1814L105.099 21.6325C105.422 21.1222 105.955 20.9566 106.7 21.1359L107.4 21.3044C109.124 21.7191 109.778 22.788 109.363 24.5111L108.922 26.3453C108.713 27.2123 108.312 27.8274 107.719 28.1903C107.129 28.5422 106.4 28.6138 105.533 28.4051L104.065 28.0519C103.187 27.8406 102.565 27.4439 102.2 26.862C101.834 26.2801 101.757 25.55 101.968 24.6718L102.049 24.3383C102.107 24.0937 102.254 23.9996 102.487 24.0557L103.904 24.3969C104.138 24.453 104.225 24.6034 104.166 24.848L104.09 25.1648C104.007 25.5094 104.019 25.7769 104.126 25.9673C104.247 26.1493 104.48 26.2817 104.824 26.3647L105.608 26.5533C105.964 26.6389 106.242 26.6295 106.444 26.5251C106.648 26.4096 106.792 26.1796 106.875 25.835L107.236 24.3343C107.348 23.8674 107.347 23.5318 107.231 23.3276C107.118 23.1123 106.851 22.9538 106.428 22.8521Z" fill="white"/>
<path d="M119.217 33.5237L117.915 32.8672C117.701 32.7591 117.647 32.5978 117.756 32.3834L119.408 29.1064L119.587 21.782C119.593 21.6696 119.631 21.593 119.703 21.5523C119.79 21.5066 119.88 21.5069 119.972 21.5533L121.595 22.3719C121.758 22.4543 121.827 22.6233 121.8 22.8789L121.455 27.3724L121.562 27.4264L124.939 24.4622C125.119 24.2838 125.296 24.2384 125.469 24.326L127.092 25.1446C127.194 25.1961 127.25 25.2628 127.26 25.3446C127.28 25.4316 127.239 25.5133 127.137 25.5897L121.353 30.0872L119.7 33.3643C119.592 33.5787 119.431 33.6318 119.217 33.5237Z" fill="white"/>
<path d="M129.559 40.0737L126.481 37.8624C125.747 37.3355 125.321 36.7335 125.201 36.0567C125.082 35.3798 125.286 34.6746 125.813 33.941L127.654 31.3779C128.181 30.6443 128.784 30.2259 129.464 30.1227C130.143 30.0195 130.85 30.2314 131.584 30.7584L132.684 31.5489C133.418 32.0758 133.844 32.6778 133.963 33.3546C134.082 34.0315 133.878 34.7367 133.351 35.4703L132.081 37.2394C131.941 37.4344 131.773 37.4619 131.578 37.3218L128.082 34.8103C127.97 34.7303 127.878 34.7413 127.804 34.8435L127.584 35.1499C127.378 35.4378 127.288 35.6901 127.315 35.9068C127.358 36.1209 127.529 36.3347 127.826 36.5482L130.64 38.5694C130.835 38.7094 130.859 38.8816 130.712 39.0859L130.052 40.0053C129.978 40.1074 129.902 40.165 129.822 40.1781C129.758 40.1886 129.67 40.1538 129.559 40.0737ZM128.932 33.6263L130.827 34.9871C130.929 35.0605 131.016 35.0461 131.09 34.9439L131.57 34.2753C131.784 33.9782 131.873 33.7259 131.839 33.5184C131.805 33.311 131.64 33.1005 131.343 32.8871L130.758 32.4668C130.46 32.2534 130.208 32.1636 130.001 32.1976C129.793 32.2316 129.583 32.3972 129.369 32.6944L128.889 33.363C128.816 33.4652 128.83 33.5529 128.932 33.6263Z" fill="white"/>
<path d="M134.423 44.3731L134.129 44.0857C133.482 43.4551 133.15 42.7963 133.133 42.1092C133.117 41.4222 133.424 40.7553 134.054 40.1086L136.257 37.8492C136.888 37.2025 137.547 36.8788 138.234 36.8783C138.921 36.8777 139.588 37.1927 140.235 37.8233L143.072 40.5892C143.252 40.7648 143.258 40.9386 143.09 41.1105L137.487 46.8572C137.319 47.0291 137.145 47.0273 136.965 46.8517L135.934 45.8459C135.762 45.6782 135.76 45.5085 135.927 45.3366L136.322 44.9313L136.273 44.8834C135.968 45.0167 135.644 45.0288 135.303 44.9199C134.97 44.8028 134.677 44.6206 134.423 44.3731ZM137.903 43.3105L140.333 40.8178C140.421 40.7277 140.416 40.6348 140.318 40.539L139.164 39.4135C138.902 39.1581 138.662 39.0358 138.443 39.0466C138.233 39.0492 138 39.1815 137.745 39.4435L135.685 41.5555C135.43 41.8175 135.3 42.0577 135.294 42.276C135.297 42.4862 135.429 42.7191 135.691 42.9745L136.146 43.4175C136.71 43.9683 137.296 43.9326 137.903 43.3105Z" fill="white"/>
<path d="M139.85 50.2872L138.937 49.1503C138.787 48.963 138.805 48.7942 138.993 48.6439L145.252 43.62C145.44 43.4697 145.608 43.4882 145.759 43.6754L146.671 44.8124C146.821 44.9996 146.803 45.1684 146.616 45.3187L146.161 45.6837L146.204 45.7372C146.523 45.642 146.846 45.6692 147.171 45.8187C147.496 45.9682 147.77 46.1811 147.992 46.4576L148.378 46.9391C148.521 47.1174 148.499 47.2817 148.312 47.432L147.389 48.1727C147.282 48.2586 147.188 48.2972 147.108 48.2884C147.044 48.2813 146.976 48.2252 146.907 48.1199L146.166 47.197C145.672 46.5817 145.077 46.5532 144.382 47.1114L140.356 50.3427C140.169 50.4929 140 50.4745 139.85 50.2872Z" fill="white"/>
<path d="M144.388 56.6633L142.661 53.9C142.54 53.7061 142.581 53.5455 142.784 53.4182L143.715 52.8365C143.822 52.7698 143.907 52.7438 143.97 52.7583C144.043 52.7668 144.115 52.8292 144.188 52.9456L145.706 55.3744C146.003 55.8495 146.297 55.9962 146.588 55.8144L146.66 55.7689C146.893 55.6235 146.992 55.2853 146.957 54.7545L146.857 52.8147C146.8 52.1626 146.844 51.6294 146.989 51.2149C147.135 50.8004 147.435 50.4507 147.891 50.1659C148.57 49.7417 149.181 49.609 149.726 49.7678C150.27 49.9265 150.781 50.3889 151.26 51.1549L152.778 53.5837C152.899 53.7776 152.858 53.9382 152.654 54.0655L151.709 54.6563C151.602 54.723 151.513 54.7521 151.44 54.7436C151.377 54.729 151.309 54.6636 151.236 54.5472L149.973 52.5256C149.676 52.0505 149.406 51.8887 149.164 52.0402L149.091 52.0857C148.878 52.219 148.79 52.5638 148.827 53.1201L148.873 55.1344C148.916 55.8083 148.856 56.3379 148.693 56.7234C148.539 57.1027 148.229 57.4378 147.764 57.7287C146.465 58.5407 145.339 58.1856 144.388 56.6633Z" fill="white"/>
<path d="M150.563 69.6213L150.058 68.1809C149.759 67.3285 149.755 66.5909 150.045 65.968C150.335 65.3451 150.907 64.8842 151.759 64.5852L154.737 63.5406C155.589 63.2416 156.323 63.2446 156.939 63.5496C157.555 63.8546 158.013 64.4332 158.312 65.2856L158.817 66.726C159.112 67.5675 159.109 68.3016 158.808 68.9283C158.521 69.562 157.957 70.0265 157.116 70.3217L154.138 71.3662C153.296 71.6615 152.56 71.6531 151.93 71.3411C151.314 71.0361 150.858 70.4628 150.563 69.6213ZM151.93 67.8696L152.219 68.695C152.34 69.0402 152.496 69.2584 152.685 69.3494C152.878 69.4513 153.148 69.4417 153.493 69.3205L156.341 68.3214C156.687 68.2003 156.903 68.0396 156.99 67.8393C157.081 67.6499 157.066 67.3825 156.945 67.0373L156.656 66.2119C156.534 65.8666 156.379 65.6485 156.19 65.5574C156 65.4663 155.733 65.4814 155.388 65.6025L152.539 66.6016C152.194 66.7228 151.976 66.878 151.885 67.0675C151.794 67.257 151.809 67.5243 151.93 67.8696Z" fill="white"/>
<path d="M161.432 76.4164L161.718 77.7585C161.746 77.8927 161.737 77.9881 161.691 78.0447C161.658 78.1101 161.58 78.1559 161.457 78.1821L160.299 78.4281C160.064 78.478 159.922 78.3855 159.872 78.1506L159.587 76.8086C159.561 76.6855 159.486 76.6371 159.363 76.6632L153.19 77.9752C152.955 78.0251 152.811 77.9271 152.759 77.681L152.459 76.2718C152.409 76.0369 152.502 75.8946 152.737 75.8446L158.91 74.5327C159.033 74.5065 159.081 74.4263 159.052 74.2921L158.888 73.5204C158.838 73.2856 158.931 73.1432 159.166 73.0933L160.323 72.8473C160.457 72.8187 160.552 72.8221 160.606 72.8573C160.662 72.9037 160.705 72.9941 160.734 73.1283L160.898 73.9C160.926 74.0342 161.002 74.0882 161.125 74.0621L161.444 73.9943C162.327 73.8066 163.053 73.892 163.62 74.2508C164.189 74.6207 164.568 75.2474 164.756 76.1309L164.959 77.0872C164.987 77.2214 164.978 77.3168 164.932 77.3734C164.897 77.4277 164.818 77.4679 164.695 77.494L163.537 77.74C163.302 77.7899 163.161 77.703 163.114 77.4793L162.982 76.8586C162.906 76.5007 162.775 76.2713 162.59 76.1704C162.418 76.0783 162.154 76.0702 161.796 76.1463L161.578 76.1926C161.455 76.2188 161.406 76.2934 161.432 76.4164Z" fill="white"/>
<path d="M154.048 92.0833L153.992 86.4753C153.989 86.2352 154.108 86.1139 154.348 86.1115L164.655 86.0075C164.896 86.0051 165.017 86.124 165.019 86.3641L165.076 91.9721C165.078 92.2007 164.959 92.3163 164.719 92.3187L163.553 92.3305C163.313 92.3329 163.192 92.2198 163.189 91.9911L163.153 88.4068C163.152 88.2696 163.088 88.2016 162.962 88.2029L160.733 88.2254C160.607 88.2266 160.545 88.2959 160.546 88.4331L160.576 91.3657C160.578 91.6058 160.46 91.7271 160.219 91.7295L159.053 91.7413C158.813 91.7437 158.692 91.6248 158.69 91.3847L158.66 88.4521C158.659 88.3149 158.595 88.2469 158.469 88.2482L156.085 88.2723C155.96 88.2735 155.897 88.3428 155.899 88.48L155.935 92.0643C155.937 92.293 155.818 92.4085 155.578 92.4109L154.412 92.4227C154.172 92.4251 154.051 92.312 154.048 92.0833Z" fill="white"/>
<path d="M153.682 97.402L153.922 95.6865C153.964 95.3921 154.094 95.3295 154.312 95.4987L158.072 98.2074L162.261 96.6121C162.515 96.5321 162.624 96.6167 162.589 96.8658L162.347 98.5983C162.309 98.8701 162.165 99.0289 161.916 99.0749L159.185 99.7833L159.175 99.8513L161.626 101.147C161.853 101.26 161.947 101.452 161.909 101.724L161.671 103.422C161.63 103.716 161.501 103.773 161.283 103.593L157.679 101.01L153.313 102.632C153.203 102.675 153.118 102.668 153.056 102.614C152.993 102.57 152.969 102.492 152.985 102.379L153.23 100.629C153.263 100.391 153.406 100.238 153.658 100.17L156.407 99.4635L156.416 99.3955L153.967 97.9615C153.741 97.8489 153.646 97.6624 153.682 97.402Z" fill="white"/>
<path d="M149.72 106.1L150.138 104.704C150.207 104.474 150.351 104.392 150.57 104.457L160.51 107.434C160.74 107.503 160.821 107.652 160.752 107.882L160.334 109.279C160.265 109.509 160.116 109.589 159.886 109.52L159.343 109.358L159.324 109.424C159.583 109.633 159.739 109.912 159.789 110.261C159.851 110.614 159.831 110.96 159.729 111.3L159.527 111.973C159.275 112.817 158.854 113.383 158.266 113.672C157.675 113.973 156.947 113.993 156.082 113.734L153.058 112.829C152.193 112.57 151.596 112.152 151.267 111.577C150.935 111.012 150.895 110.307 151.148 109.464L151.35 108.79C151.451 108.451 151.619 108.149 151.853 107.885C152.099 107.624 152.387 107.478 152.719 107.446L152.739 107.38L149.945 106.544C149.726 106.478 149.651 106.33 149.72 106.1ZM153.319 108.789L153.103 109.512C152.998 109.863 152.995 110.131 153.095 110.316C153.202 110.515 153.431 110.667 153.782 110.772L156.608 111.618C156.958 111.723 157.228 111.72 157.416 111.61C157.612 111.513 157.762 111.29 157.867 110.939L158.084 110.216C158.31 109.46 158.007 108.958 157.175 108.709L154.907 108.03C154.075 107.78 153.546 108.034 153.319 108.789Z" fill="white"/>
<path d="M146.566 120.542L148.207 117.126C148.598 116.311 149.116 115.787 149.762 115.551C150.407 115.316 151.137 115.394 151.952 115.785L154.796 117.151C155.611 117.542 156.128 118.063 156.348 118.714C156.568 119.365 156.482 120.098 156.091 120.912L155.505 122.134C155.114 122.948 154.595 123.473 153.95 123.708C153.304 123.943 152.574 123.865 151.76 123.474L149.796 122.531C149.58 122.427 149.523 122.267 149.627 122.051L151.491 118.17C151.55 118.047 151.523 117.957 151.41 117.903L151.07 117.74C150.75 117.586 150.486 117.542 150.278 117.607C150.074 117.686 149.894 117.891 149.735 118.221L148.235 121.344C148.131 121.561 147.966 121.614 147.739 121.505L146.719 121.015C146.606 120.961 146.535 120.896 146.509 120.819C146.487 120.758 146.506 120.666 146.566 120.542ZM152.805 118.801L151.795 120.904C151.741 121.017 151.77 121.101 151.884 121.156L152.626 121.512C152.956 121.67 153.22 121.715 153.418 121.645C153.616 121.576 153.795 121.376 153.953 121.046L154.265 120.397C154.423 120.067 154.468 119.803 154.398 119.604C154.329 119.406 154.129 119.228 153.799 119.069L153.057 118.713C152.944 118.658 152.86 118.688 152.805 118.801Z" fill="white"/>
<path d="M143.978 124.837L144.77 123.613C144.9 123.411 145.066 123.376 145.268 123.506L152.006 127.867C152.208 127.997 152.243 128.163 152.113 128.365L151.321 129.589C151.19 129.79 151.024 129.826 150.823 129.695L150.333 129.379L150.296 129.436C150.487 129.71 150.562 130.024 150.523 130.38C150.483 130.736 150.367 131.062 150.175 131.36L149.839 131.878C149.715 132.07 149.552 132.101 149.351 131.97L148.357 131.328C148.242 131.253 148.176 131.176 148.159 131.097C148.145 131.034 148.178 130.953 148.255 130.853L148.898 129.86C149.327 129.197 149.167 128.624 148.418 128.139L144.084 125.335C143.883 125.204 143.847 125.038 143.978 124.837Z" fill="white"/>
<path d="M149.433 134.898L150.615 135.808C150.796 135.948 150.817 136.108 150.677 136.289L149.767 137.472C149.628 137.653 149.472 137.677 149.3 137.545L148.104 136.624C147.923 136.484 147.902 136.324 148.041 136.143L148.952 134.96C149.091 134.779 149.252 134.758 149.433 134.898ZM141.619 128.881L147.979 133.778C148.169 133.925 148.194 134.089 148.055 134.27L147.155 135.438C147.008 135.629 146.84 135.651 146.65 135.504L140.29 130.607C140.173 130.516 140.113 130.434 140.112 130.361C140.103 130.297 140.137 130.215 140.214 130.115L141.114 128.947C141.261 128.757 141.429 128.735 141.619 128.881Z" fill="white"/>
<path d="M134.396 136.584L137.017 133.845C137.641 133.193 138.297 132.855 138.984 132.831C139.671 132.808 140.34 133.109 140.993 133.733L143.273 135.915C143.926 136.539 144.256 137.195 144.263 137.883C144.27 138.57 143.961 139.24 143.337 139.892L142.4 140.871C141.775 141.524 141.12 141.862 140.433 141.885C139.746 141.908 139.076 141.608 138.424 140.983L136.85 139.477C136.676 139.311 136.673 139.142 136.839 138.968L139.815 135.858C139.91 135.759 139.912 135.666 139.821 135.579L139.548 135.318C139.292 135.073 139.055 134.949 138.836 134.945C138.618 134.958 138.383 135.097 138.13 135.361L135.735 137.864C135.569 138.038 135.395 138.038 135.213 137.864L134.395 137.081C134.304 136.994 134.258 136.91 134.256 136.83C134.255 136.765 134.301 136.683 134.396 136.584ZM140.868 136.866L139.255 138.551C139.168 138.642 139.17 138.731 139.261 138.818L139.856 139.387C140.12 139.64 140.358 139.764 140.568 139.759C140.778 139.755 141.01 139.62 141.263 139.356L141.761 138.835C142.014 138.571 142.138 138.334 142.133 138.124C142.128 137.913 141.994 137.682 141.73 137.429L141.135 136.86C141.044 136.773 140.955 136.775 140.868 136.866Z" fill="white"/>
<path d="M130.561 139.938L131.717 139.049C131.907 138.903 132.076 138.925 132.222 139.115L137.113 145.48C137.259 145.67 137.237 145.839 137.046 145.985L135.89 146.873C135.7 147.02 135.532 146.998 135.385 146.807L135.041 146.358L134.986 146.4C135.163 147.043 134.907 147.629 134.218 148.159L133.783 148.493C132.359 149.587 131.08 149.395 129.944 147.917L126.537 143.484C126.391 143.293 126.418 143.121 126.617 142.968L127.76 142.09C127.95 141.944 128.118 141.966 128.265 142.156L131.609 146.508C131.831 146.798 132.052 146.954 132.269 146.974C132.485 147.01 132.737 146.917 133.027 146.694L133.517 146.318C134.143 145.837 134.191 145.252 133.661 144.563L130.495 140.443C130.349 140.252 130.371 140.084 130.561 139.938Z" fill="white"/>
<path d="M119.943 148.703L119.372 147.667C119.311 147.557 119.292 147.463 119.314 147.385C119.332 147.323 119.401 147.259 119.522 147.192L121.759 145.959C122.551 145.522 123.277 145.396 123.94 145.579C124.602 145.762 125.151 146.249 125.587 147.04L127.111 149.804C127.547 150.595 127.666 151.319 127.467 151.977C127.269 152.635 126.774 153.182 125.983 153.618L123.745 154.852C123.535 154.968 123.372 154.921 123.256 154.711L122.684 153.674C122.624 153.564 122.604 153.47 122.627 153.393C122.645 153.331 122.714 153.266 122.834 153.2L124.771 152.132C125.082 151.961 125.269 151.766 125.331 151.549C125.39 151.347 125.331 151.086 125.154 150.765L123.73 148.182C123.553 147.862 123.361 147.667 123.154 147.599C122.942 147.546 122.68 147.605 122.37 147.776L120.433 148.845C120.222 148.96 120.059 148.913 119.943 148.703Z" fill="white"/>
<path d="M109.607 151.354L113.164 150.046C114.011 149.734 114.749 149.718 115.376 149.999C116.003 150.28 116.473 150.844 116.785 151.692L117.875 154.654C118.186 155.501 118.195 156.236 117.899 156.856C117.603 157.476 117.032 157.943 116.184 158.254L114.912 158.722C114.065 159.034 113.327 159.05 112.7 158.769C112.073 158.488 111.603 157.924 111.291 157.076L110.539 155.032C110.456 154.806 110.528 154.652 110.753 154.569L114.793 153.083C114.922 153.035 114.964 152.953 114.921 152.835L114.791 152.481C114.668 152.148 114.51 151.932 114.315 151.833C114.113 151.749 113.841 151.77 113.498 151.896L110.246 153.093C110.021 153.176 109.865 153.099 109.778 152.863L109.387 151.801C109.344 151.683 109.339 151.587 109.373 151.513C109.4 151.455 109.478 151.402 109.607 151.354ZM115.296 154.451L113.107 155.256C112.989 155.3 112.952 155.381 112.995 155.499L113.28 156.271C113.406 156.615 113.565 156.83 113.755 156.919C113.946 157.007 114.213 156.988 114.557 156.861L115.233 156.613C115.576 156.486 115.792 156.328 115.88 156.137C115.968 155.946 115.949 155.679 115.823 155.336L115.539 154.563C115.495 154.445 115.414 154.408 115.296 154.451Z" fill="white"/>
<path d="M101.72 163.975L101.741 164.128C101.77 164.343 101.672 164.467 101.445 164.498L100.596 164.615C100.369 164.646 100.241 164.554 100.212 164.339L100.191 164.186C100.128 163.733 100.166 163.249 100.302 162.733C100.324 162.638 100.345 162.543 100.367 162.448C100.39 162.364 100.42 162.284 100.456 162.21C100.482 162.149 100.508 162.088 100.534 162.026C100.551 161.978 100.562 161.936 100.569 161.9C100.314 162.316 100.123 162.602 99.9943 162.758C99.7177 163.097 99.3143 163.395 98.7842 163.652C98.5994 163.735 98.4477 163.681 98.329 163.49L97.962 162.709C97.8644 162.503 97.9185 162.352 98.1244 162.254C98.5006 162.052 98.8926 161.923 99.3003 161.867C99.7776 161.813 100.163 161.8 100.455 161.829C99.5295 161.645 98.8248 161.263 98.3411 160.683C98.1916 160.519 98.1932 160.363 98.3459 160.215L98.9748 159.627C99.1404 159.489 99.3021 159.489 99.4599 159.629C100.094 160.211 100.473 160.956 100.598 161.862C100.532 161.132 100.552 160.604 100.657 160.278C100.725 160.015 100.843 159.699 101.011 159.329C101.103 159.155 101.259 159.116 101.48 159.213L102.23 159.629C102.461 159.713 102.51 159.862 102.378 160.076C102.167 160.474 101.98 160.748 101.816 160.898C101.653 161.059 101.521 161.187 101.418 161.281C101.305 161.378 101.2 161.456 101.104 161.515C101.01 161.586 100.931 161.643 100.868 161.686C100.795 161.742 100.705 161.801 100.598 161.862C101.535 161.456 102.323 161.313 102.963 161.432L103.123 161.462C103.325 161.504 103.406 161.637 103.368 161.861L103.225 162.712C103.187 162.937 103.055 163.024 102.829 162.974C102.122 162.875 101.418 162.534 100.714 161.95L100.637 161.891C100.664 161.922 100.698 161.958 100.738 161.998C100.768 162.052 100.81 162.104 100.863 162.154C100.918 162.216 100.973 162.283 101.03 162.356C101.076 162.442 101.128 162.527 101.186 162.612C101.245 162.708 101.305 162.809 101.366 162.916C101.416 163.025 101.465 163.133 101.515 163.242C101.614 163.459 101.682 163.703 101.72 163.975Z" fill="white"/>
<path d="M88.8893 154.786L88.7574 156.41C88.7046 157.059 88.3805 157.589 87.785 158L84.423 160.411C83.8759 160.791 83.5824 161.226 83.5426 161.716L83.5009 162.229C83.4722 162.582 83.5373 162.84 83.6962 163.002C83.8428 163.174 84.1041 163.276 84.4802 163.306L85.0785 163.355C85.4432 163.384 85.7061 163.326 85.8672 163.178C86.0274 163.042 86.1218 162.797 86.1506 162.444L86.195 161.897C86.2154 161.646 86.3452 161.531 86.5845 161.55L88.0376 161.668C88.2769 161.688 88.3864 161.823 88.366 162.073L88.3188 162.655C88.2465 163.543 87.946 164.207 87.417 164.646C86.8881 165.085 86.1735 165.268 85.2732 165.195L83.974 165.089C83.0737 165.016 82.398 164.72 81.9468 164.202C81.4957 163.683 81.3062 162.98 81.3784 162.091L81.434 161.407C81.5062 160.518 81.9078 159.811 82.6388 159.285L86.0748 156.811C86.2218 156.697 86.3013 156.566 86.3133 156.417L86.3355 156.144L82.25 155.812C82.0106 155.792 81.9007 155.663 81.9201 155.424L82.0174 154.227C82.0368 153.988 82.1662 153.878 82.4055 153.897L88.5595 154.397C88.7988 154.417 88.9088 154.546 88.8893 154.786Z" fill="white"/>
<path d="M73.7422 157.972L74.5256 158.162C74.8145 158.232 75.065 158.169 75.2771 157.973C75.4782 157.775 75.662 157.696 75.8287 157.736L77.2121 158.072C77.4455 158.128 77.5352 158.268 77.4813 158.49L76.2005 163.774C76.1439 164.007 75.9989 164.096 75.7656 164.039L69.9651 162.633C69.7318 162.576 69.6434 162.431 69.6999 162.198L70.007 160.931C70.0636 160.698 70.2086 160.609 70.4419 160.666L74.4756 161.644L75.0695 159.194C74.746 159.703 74.2119 159.868 73.4674 159.688L72.7673 159.518C71.045 159.1 70.3926 158.03 70.8101 156.308L71.2546 154.475C71.4647 153.608 71.8666 152.993 72.4602 152.631C73.0512 152.281 73.78 152.21 74.6467 152.42L76.1135 152.776C76.9914 152.989 77.6126 153.386 77.9773 153.969C78.342 154.551 78.4179 155.282 78.2051 156.16L78.1243 156.493C78.065 156.737 77.9187 156.831 77.6854 156.775L76.2686 156.431C76.0353 156.375 75.9482 156.224 76.0075 155.98L76.0842 155.663C76.1678 155.319 76.1561 155.051 76.0494 154.86C75.9288 154.678 75.6963 154.545 75.3519 154.462L74.5685 154.272C74.2129 154.186 73.9342 154.195 73.7325 154.299C73.5281 154.414 73.3842 154.644 73.3007 154.988L72.937 156.488C72.8239 156.955 72.8249 157.291 72.9401 157.495C73.0525 157.711 73.3199 157.869 73.7422 157.972Z" fill="white"/>
<path d="M60.975 147.282L62.2756 147.94C62.4898 148.049 62.5427 148.21 62.4342 148.425L60.776 151.699L60.5852 159.023C60.5795 159.135 60.5407 159.212 60.4689 159.252C60.3818 159.298 60.2923 159.298 60.2005 159.251L58.5786 158.43C58.4154 158.347 58.3473 158.178 58.3741 157.922L58.7269 153.43L58.6198 153.375L55.2375 156.334C55.0576 156.512 54.881 156.557 54.7076 156.469L53.0857 155.648C52.9837 155.596 52.9278 155.53 52.918 155.448C52.898 155.361 52.9393 155.279 53.0419 155.203L58.8328 150.715L60.491 147.44C60.5995 147.226 60.7608 147.173 60.975 147.282Z" fill="white"/>
<path d="M50.6425 140.713L53.7173 142.929C54.4501 143.457 54.8755 144.06 54.9935 144.737C55.1116 145.414 54.9065 146.119 54.3783 146.852L52.5331 149.412C52.0049 150.145 51.401 150.562 50.7214 150.664C50.0417 150.766 49.3355 150.553 48.6028 150.025L47.5036 149.233C46.7708 148.705 46.3454 148.102 46.2274 147.425C46.1093 146.748 46.3144 146.043 46.8426 145.31L48.1162 143.543C48.2566 143.348 48.4242 143.321 48.619 143.462L52.1112 145.979C52.2225 146.059 52.3149 146.048 52.3885 145.946L52.6091 145.64C52.8164 145.352 52.9065 145.1 52.8795 144.884C52.8366 144.669 52.6667 144.455 52.3699 144.241L49.5594 142.216C49.3646 142.075 49.3408 141.903 49.4878 141.699L50.1497 140.781C50.2233 140.679 50.2999 140.621 50.3798 140.608C50.4436 140.598 50.5312 140.633 50.6425 140.713ZM51.2588 147.161L49.3666 145.798C49.2645 145.724 49.1768 145.738 49.1032 145.84L48.6218 146.508C48.4079 146.805 48.3178 147.057 48.3514 147.265C48.3851 147.472 48.5503 147.683 48.8472 147.897L49.4315 148.318C49.7283 148.532 49.9805 148.622 50.188 148.588C50.3955 148.555 50.6062 148.389 50.8201 148.093L51.3015 147.425C51.375 147.323 51.3608 147.235 51.2588 147.161Z" fill="white"/>
<path d="M45.7859 136.406L46.0801 136.694C46.7258 137.326 47.0565 137.985 47.0721 138.672C47.0877 139.36 46.7797 140.026 46.1481 140.672L43.9413 142.927C43.3096 143.573 42.6501 143.896 41.9629 143.895C41.2756 143.895 40.6091 143.579 39.9634 142.947L37.1314 140.176C36.9516 140 36.9456 139.827 37.1135 139.655L42.7265 133.917C42.8944 133.746 43.0682 133.748 43.2481 133.924L44.2779 134.931C44.4495 135.099 44.4514 135.269 44.2835 135.441L43.8877 135.845L43.9367 135.893C44.2425 135.76 44.5658 135.749 44.9066 135.858C45.2394 135.976 45.5325 136.159 45.7859 136.406ZM42.3046 137.463L39.8699 139.952C39.7819 140.042 39.787 140.135 39.8851 140.231L41.0375 141.358C41.2991 141.614 41.5389 141.737 41.7571 141.726C41.9673 141.724 42.2004 141.592 42.4562 141.331L44.5191 139.222C44.7749 138.96 44.9057 138.72 44.9114 138.502C44.9091 138.292 44.7772 138.059 44.5156 137.803L44.062 137.359C43.4981 136.808 42.9122 136.842 42.3046 137.463Z" fill="white"/>
<path d="M40.3687 130.482L41.2793 131.62C41.4293 131.808 41.4105 131.976 41.223 132.126L34.9551 137.14C34.7676 137.29 34.5988 137.271 34.4488 137.084L33.5382 135.946C33.3882 135.758 33.407 135.589 33.5945 135.439L34.0498 135.075L34.007 135.022C33.6874 135.116 33.365 135.088 33.0401 134.938C32.7151 134.788 32.4419 134.575 32.2205 134.298L31.8348 133.816C31.6919 133.638 31.7143 133.473 31.9018 133.323L32.8259 132.584C32.933 132.498 33.0268 132.46 33.1071 132.469C33.1714 132.476 33.2384 132.532 33.308 132.638L34.0472 133.562C34.5401 134.178 35.1347 134.207 35.8311 133.65L39.8624 130.425C40.0499 130.276 40.2187 130.294 40.3687 130.482Z" fill="white"/>
<path d="M35.8414 124.099L37.564 126.866C37.6849 127.06 37.6434 127.22 37.4396 127.347L36.5078 127.927C36.4011 127.994 36.3162 128.02 36.2532 128.005C36.1805 127.997 36.1079 127.934 36.0353 127.818L34.5213 125.386C34.2251 124.911 33.9314 124.764 33.6403 124.945L33.5675 124.99C33.3345 125.135 33.2352 125.473 33.2695 126.004L33.3663 127.944C33.4223 128.596 33.3771 129.129 33.231 129.544C33.0849 129.958 32.7838 130.307 32.3276 130.591C31.6482 131.014 31.0366 131.146 30.4926 130.986C29.9487 130.827 29.438 130.364 28.9605 129.597L27.4464 127.165C27.3256 126.971 27.367 126.811 27.5709 126.684L28.5172 126.095C28.6239 126.028 28.7137 125.999 28.7864 126.008C28.8494 126.022 28.9171 126.088 28.9897 126.204L30.2499 128.228C30.546 128.704 30.8154 128.866 31.0581 128.715L31.1309 128.669C31.3444 128.537 31.4328 128.192 31.3962 127.635L31.354 125.621C31.3114 124.947 31.3723 124.418 31.5365 124.032C31.6911 123.653 32.0013 123.319 32.4672 123.029C33.7677 122.219 34.8925 122.576 35.8414 124.099Z" fill="white"/>
<path d="M29.6846 111.132L30.1875 112.573C30.4851 113.426 30.4882 114.164 30.1968 114.786C29.9053 115.409 29.3332 115.869 28.4804 116.166L25.5008 117.206C24.648 117.503 23.9139 117.499 23.2985 117.193C22.6831 116.887 22.2266 116.308 21.929 115.455L21.4261 114.014C21.1322 113.172 21.1364 112.438 21.4386 111.812C21.7263 111.178 22.2911 110.715 23.1332 110.421L26.1127 109.381C26.9548 109.087 27.6908 109.097 28.3207 109.41C28.9361 109.716 29.3907 110.29 29.6846 111.132ZM28.3151 112.881L28.0269 112.056C27.9063 111.71 27.7514 111.492 27.5621 111.4C27.369 111.298 27.0997 111.307 26.7543 111.428L23.9043 112.422C23.5588 112.543 23.3423 112.703 23.2547 112.903C23.1633 113.093 23.1779 113.36 23.2985 113.706L23.5867 114.531C23.7072 114.877 23.8621 115.095 24.0515 115.187C24.2408 115.278 24.5082 115.264 24.8536 115.143L27.7036 114.148C28.0491 114.028 28.2675 113.873 28.3588 113.684C28.4502 113.494 28.4356 113.227 28.3151 112.881Z" fill="white"/>
<path d="M18.8268 104.316L18.5438 102.974C18.5155 102.839 18.5246 102.744 18.5711 102.687C18.604 102.622 18.6821 102.576 18.8051 102.55L19.9631 102.306C20.198 102.257 20.3403 102.35 20.3898 102.585L20.6728 103.927C20.6987 104.05 20.7732 104.099 20.8963 104.073L27.0721 102.771C27.307 102.721 27.4504 102.82 27.5023 103.066L27.7995 104.476C27.849 104.711 27.7563 104.853 27.5213 104.902L21.3456 106.204C21.2225 106.23 21.1751 106.31 21.2034 106.444L21.3661 107.216C21.4157 107.451 21.3229 107.594 21.088 107.643L19.93 107.887C19.7958 107.915 19.7016 107.912 19.6474 107.877C19.5908 107.83 19.5484 107.74 19.5201 107.605L19.3574 106.834C19.3291 106.699 19.2534 106.645 19.1303 106.671L18.8115 106.738C17.9276 106.925 17.2024 106.838 16.6358 106.478C16.0669 106.107 15.6893 105.48 15.5029 104.596L15.3013 103.64C15.273 103.505 15.2821 103.41 15.3286 103.353C15.3639 103.299 15.4431 103.259 15.5662 103.233L16.7242 102.989C16.9591 102.94 17.1002 103.027 17.1473 103.25L17.2782 103.871C17.3537 104.229 17.4839 104.459 17.6688 104.56C17.8402 104.653 18.1049 104.661 18.4629 104.586L18.6811 104.54C18.8041 104.514 18.8527 104.439 18.8268 104.316Z" fill="white"/>
<path d="M26.2368 88.663L26.2843 94.2711C26.2863 94.5112 26.1673 94.6323 25.9272 94.6343L15.6199 94.7216C15.3798 94.7236 15.2587 94.6046 15.2567 94.3645L15.2093 88.7564C15.2073 88.5277 15.3264 88.4123 15.5665 88.4103L16.7327 88.4004C16.9728 88.3984 17.0938 88.5117 17.0958 88.7404L17.1261 92.3248C17.1273 92.462 17.1907 92.53 17.3165 92.529L19.546 92.5101C19.6718 92.509 19.7341 92.4399 19.7329 92.3027L19.7081 89.37C19.7061 89.1299 19.8251 89.0089 20.0652 89.0068L21.2314 88.997C21.4715 88.9949 21.5926 89.114 21.5946 89.3541L21.6195 92.2868C21.6206 92.424 21.6841 92.492 21.8098 92.491L24.1937 92.4708C24.3195 92.4697 24.3818 92.4006 24.3806 92.2634L24.3503 88.679C24.3484 88.4503 24.4674 88.335 24.7075 88.333L25.8738 88.3231C26.1139 88.3211 26.2349 88.4344 26.2368 88.663Z" fill="white"/>
<path d="M26.6122 83.3468L26.3692 85.0619C26.3275 85.3562 26.1974 85.4186 25.9789 85.2491L22.2236 82.5344L18.0317 84.1229C17.778 84.2024 17.6687 84.1177 17.704 83.8686L17.9495 82.1365C17.988 81.8648 18.1317 81.7062 18.3807 81.6606L21.1134 80.9566L21.123 80.8887L18.6743 79.5889C18.4477 79.476 18.3537 79.2837 18.3922 79.012L18.6329 77.3139C18.6746 77.0195 18.8039 76.9628 19.0208 77.1437L22.6207 79.7325L26.9896 78.117C27.0995 78.0749 27.1852 78.0813 27.2467 78.1362C27.3098 78.1797 27.3334 78.2581 27.3173 78.3714L27.0695 80.1204C27.0358 80.3581 26.8928 80.5111 26.6407 80.5793L23.8909 81.2809L23.8813 81.3489L26.3278 82.7868C26.5543 82.8998 26.6491 83.0864 26.6122 83.3468Z" fill="white"/>
<path d="M30.5899 74.6541L30.1695 76.05C30.1002 76.2799 29.9561 76.3618 29.7371 76.2959L19.8019 73.3031C19.572 73.2338 19.4917 73.0843 19.5609 72.8544L19.9814 71.4585C20.0506 71.2286 20.2002 71.1483 20.4301 71.2175L20.9721 71.3808L20.9918 71.3151C20.7325 71.1056 20.5779 70.8262 20.5279 70.4768C20.467 70.124 20.4876 69.778 20.5898 69.4386L20.7927 68.7653C21.0466 67.9223 21.4678 67.3566 22.0562 67.0681C22.6479 66.7687 23.3762 66.7493 24.2411 67.0098L27.2627 67.92C28.1276 68.1805 28.724 68.599 29.0519 69.1754C29.3831 69.7409 29.4218 70.4452 29.1678 71.2881L28.965 71.9614C28.8628 72.3008 28.6943 72.6024 28.4597 72.866C28.214 73.1264 27.9253 73.2723 27.5934 73.3037L27.5737 73.3694L30.3654 74.2103C30.5843 74.2763 30.6592 74.4242 30.5899 74.6541ZM26.9954 71.9592L27.213 71.2367C27.3185 70.8863 27.3216 70.6186 27.2221 70.4334C27.115 70.2339 26.8863 70.0814 26.536 69.9759L23.7114 69.1251C23.3611 69.0195 23.0917 69.022 22.9032 69.1324C22.707 69.2285 22.5562 69.4518 22.4507 69.8021L22.233 70.5247C22.0055 71.2801 22.3077 71.7831 23.1397 72.0337L25.406 72.7164C26.238 72.967 26.7678 72.7146 26.9954 71.9592Z" fill="white"/>
<path d="M33.766 60.2156L32.1195 63.6296C31.7271 64.4432 31.2079 64.9671 30.5618 65.2014C29.9156 65.4356 29.1858 65.3565 28.3722 64.9642L25.5298 63.5933C24.7162 63.2009 24.1999 62.679 23.9809 62.0276C23.7619 61.3761 23.8486 60.6436 24.241 59.83L24.8296 58.6096C25.222 57.796 25.7412 57.2721 26.3873 57.0378C27.0335 56.8036 27.7633 56.8827 28.5769 57.2751L30.5388 58.2212C30.7551 58.3255 30.8111 58.4858 30.7068 58.7021L28.8368 62.5796C28.7771 62.7031 28.804 62.7923 28.9173 62.8469L29.2571 63.0108C29.5764 63.1648 29.8404 63.2096 30.0491 63.1452C30.2526 63.0656 30.4337 62.861 30.5927 62.5315L32.0976 59.411C32.2019 59.1947 32.3674 59.1412 32.594 59.2505L33.6135 59.7422C33.7268 59.7968 33.7968 59.8623 33.8234 59.9386C33.8448 59.9997 33.8256 60.092 33.766 60.2156ZM27.5237 61.9463L28.5369 59.8454C28.5915 59.7321 28.5622 59.6481 28.4489 59.5935L27.7074 59.2359C27.3779 59.0769 27.1139 59.0321 26.9154 59.1014C26.717 59.1707 26.5383 59.3702 26.3793 59.6997L26.0664 60.3485C25.9075 60.6781 25.8627 60.9421 25.932 61.1406C26.0013 61.339 26.2007 61.5177 26.5303 61.6766L27.2718 62.0343C27.3851 62.0889 27.469 62.0596 27.5237 61.9463Z" fill="white"/>
<path d="M36.359 55.9269L35.565 57.1495C35.4342 57.3509 35.2682 57.3862 35.0668 57.2554L28.3353 52.8837C28.1339 52.7529 28.0986 52.5868 28.2294 52.3854L29.0234 51.1628C29.1542 50.9615 29.3202 50.9262 29.5216 51.0569L30.0107 51.3746L30.048 51.317C29.8576 51.0434 29.7825 50.7287 29.8226 50.3731C29.8627 50.0174 29.9793 49.6909 30.1724 49.3937L30.5087 48.8758C30.6332 48.6841 30.7962 48.6536 30.9975 48.7843L31.99 49.4289C32.1051 49.5036 32.171 49.5805 32.1878 49.6596C32.2013 49.7229 32.1689 49.8041 32.0909 49.9034L31.4463 50.8959C31.0166 51.5575 31.1757 52.1312 31.9237 52.6169L36.2531 55.4287C36.4545 55.5595 36.4898 55.7255 36.359 55.9269Z" fill="white"/>
<path d="M30.9209 45.8564L29.7402 44.9441C29.5592 44.8043 29.5387 44.6439 29.6785 44.4629L30.5907 43.2822C30.7306 43.1012 30.8864 43.0772 31.0583 43.21L32.2526 44.1327C32.4336 44.2726 32.4542 44.4329 32.3144 44.6139L31.4021 45.7947C31.2623 45.9756 31.1019 45.9962 30.9209 45.8564ZM38.7247 51.8858L32.3731 46.9784C32.1831 46.8316 32.158 46.6677 32.2978 46.4867L33.1996 45.3195C33.3464 45.1295 33.5148 45.1079 33.7048 45.2547L40.0564 50.1622C40.1741 50.253 40.2335 50.3351 40.2347 50.4083C40.243 50.4724 40.2086 50.5543 40.1317 50.6538L39.2299 51.821C39.0831 52.011 38.9147 52.0326 38.7247 51.8858Z" fill="white"/>
<path d="M45.961 44.1955L43.3362 46.9299C42.7107 47.5815 42.0545 47.9184 41.3675 47.9405C40.6806 47.9626 40.0114 47.6609 39.3597 47.0354L37.0832 44.85C36.4315 44.2245 36.1027 43.5681 36.0968 42.8809C36.0908 42.1936 36.4006 41.5242 37.0261 40.8726L37.9644 39.8951C38.5899 39.2435 39.2462 38.9066 39.9331 38.8845C40.62 38.8624 41.2893 39.1641 41.9409 39.7896L43.5122 41.298C43.6854 41.4643 43.6889 41.634 43.5226 41.8072L40.5415 44.9128C40.4465 45.0118 40.4443 45.1048 40.5351 45.1919L40.8073 45.4532C41.063 45.6987 41.3 45.8232 41.5184 45.8268C41.7365 45.8143 41.9722 45.676 42.2256 45.4121L44.6248 42.9128C44.7911 42.7396 44.9649 42.7401 45.1464 42.9143L45.963 43.6981C46.0537 43.7852 46.0999 43.8692 46.1016 43.95C46.1029 44.0147 46.0561 44.0965 45.961 44.1955ZM39.4898 43.9032L41.1051 42.2205C41.1922 42.1298 41.1904 42.0409 41.0996 41.9538L40.5057 41.3837C40.2418 41.1303 40.0047 41.0058 39.7946 41.0101C39.5844 41.0144 39.3526 41.1485 39.0993 41.4124L38.6004 41.9321C38.347 42.196 38.2225 42.4331 38.2268 42.6433C38.2311 42.8534 38.3652 43.0852 38.6292 43.3386L39.223 43.9087C39.3138 43.9958 39.4027 43.994 39.4898 43.9032Z" fill="white"/>
<path d="M49.8026 40.8469L48.6452 41.7332C48.4545 41.8792 48.2862 41.8569 48.1402 41.6663L43.26 35.2938C43.114 35.1031 43.1363 34.9348 43.327 34.7888L44.4844 33.9025C44.675 33.7565 44.8433 33.7788 44.9893 33.9694L45.3334 34.4188L45.3879 34.3771C45.2122 33.7339 45.4693 33.1482 46.1592 32.6198L46.5949 32.2861C48.0201 31.1947 49.2993 31.3888 50.4324 32.8684L53.8319 37.3074C53.9779 37.498 53.9511 37.6698 53.7514 37.8228L52.6076 38.6987C52.4169 38.8447 52.2486 38.8224 52.1026 38.6318L48.7657 34.2745C48.5433 33.984 48.3233 33.8284 48.1058 33.8077C47.8905 33.771 47.6376 33.8639 47.3471 34.0864L46.8569 34.4618C46.2306 34.9414 46.1815 35.5262 46.7099 36.2161L49.8695 40.3419C50.0155 40.5326 49.9932 40.7009 49.8026 40.8469Z" fill="white"/>
<path d="M60.4338 32.0999L61.0035 33.1372C61.064 33.2474 61.083 33.3413 61.0604 33.419C61.0423 33.4811 60.9732 33.5452 60.8529 33.6112L58.6131 34.8414C57.8213 35.2763 57.0944 35.4016 56.4323 35.2173C55.7702 35.0331 55.2217 34.5451 54.7869 33.7534L53.2677 30.9874C52.8328 30.1957 52.7153 29.471 52.915 28.8135C53.1148 28.1559 53.6105 27.6096 54.4023 27.1748L56.6421 25.9446C56.8526 25.829 57.0156 25.8764 57.1312 26.0869L57.7009 27.1241C57.7614 27.2344 57.7804 27.3283 57.7578 27.4059C57.7398 27.468 57.6706 27.5321 57.5503 27.5982L55.6111 28.6633C55.3004 28.8339 55.1135 29.0279 55.0502 29.2452C54.9915 29.4471 55.0502 29.7084 55.2264 30.029L56.6465 32.6147C56.8226 32.9354 57.0144 33.1301 57.2217 33.1988C57.4336 33.252 57.6948 33.1933 58.0055 33.0227L59.9447 31.9576C60.1552 31.842 60.3182 31.8895 60.4338 32.0999Z" fill="white"/>
<path d="M70.7744 29.4654L67.2151 30.7684C66.3668 31.0789 65.6293 31.0932 65.0026 30.8112C64.3758 30.5293 63.9071 29.9642 63.5966 29.116L62.5118 26.1525C62.2013 25.3043 62.1943 24.5702 62.4909 23.9503C62.7876 23.3303 63.36 22.865 64.2082 22.5545L65.4805 22.0888C66.3288 21.7783 67.0663 21.764 67.693 22.0459C68.3198 22.3279 68.7885 22.8929 69.099 23.7412L69.8477 25.7866C69.9303 26.012 69.8588 26.1661 69.6333 26.2486L65.5908 27.7284C65.462 27.7756 65.4192 27.8582 65.4624 27.9764L65.5921 28.3307C65.714 28.6635 65.8722 28.8796 66.0668 28.9788C66.2682 29.0633 66.5407 29.0427 66.8843 28.9169L70.1376 27.726C70.3631 27.6435 70.5191 27.7203 70.6056 27.9565L70.9947 29.0195C71.0379 29.1376 71.0425 29.2333 71.0085 29.3066C70.9813 29.3653 70.9032 29.4182 70.7744 29.4654ZM65.0897 26.3595L67.28 25.5576C67.3982 25.5144 67.4356 25.4337 67.3924 25.3156L67.1094 24.5426C66.9836 24.199 66.8253 23.9829 66.6347 23.8945C66.444 23.806 66.1769 23.8246 65.8333 23.9504L65.1568 24.198C64.8133 24.3238 64.5972 24.482 64.5087 24.6727C64.4203 24.8634 64.4389 25.1305 64.5647 25.4741L64.8477 26.2472C64.8909 26.3653 64.9716 26.4027 65.0897 26.3595Z" fill="white"/>
<path d="M78.6822 16.858L78.6614 16.705C78.6321 16.4898 78.7308 16.3668 78.9574 16.3359L79.8071 16.2204C80.0337 16.1896 80.1616 16.2819 80.1909 16.4971L80.2117 16.6501C80.2733 17.1033 80.2352 17.5873 80.0975 18.1022C80.0759 18.1974 80.0542 18.2927 80.0325 18.388C80.0093 18.4719 79.9797 18.5509 79.9436 18.6251C79.9173 18.6863 79.891 18.7476 79.8647 18.8089C79.8482 18.8573 79.8366 18.8992 79.8299 18.9348C80.085 18.5193 80.2769 18.2336 80.4057 18.0776C80.6829 17.7399 81.0868 17.4427 81.6173 17.1859C81.8022 17.1031 81.9538 17.1575 82.0722 17.3491L82.438 18.1302C82.5352 18.3362 82.4808 18.4878 82.2748 18.5851C81.8983 18.7863 81.5061 18.9146 81.0982 18.97C80.6209 19.0234 80.2359 19.0353 79.9434 19.0059C80.8687 19.1916 81.5728 19.5748 82.0556 20.1553C82.2048 20.3197 82.203 20.4757 82.05 20.6234L81.4202 21.211C81.2543 21.3489 81.0926 21.3478 80.9351 21.2077C80.302 20.6245 79.9238 19.8797 79.8006 18.9734C79.8651 19.7031 79.8446 20.2309 79.7389 20.5568C79.6708 20.8199 79.5522 21.1361 79.3832 21.5052C79.2915 21.6793 79.1351 21.7178 78.9143 21.6209L78.1652 21.2035C77.9345 21.1195 77.8854 20.9704 78.0178 20.7562C78.2291 20.3582 78.4169 20.0846 78.5813 19.9353C78.7441 19.7747 78.8767 19.6471 78.9792 19.5524C79.0931 19.4561 79.1979 19.3784 79.2937 19.3192C79.388 19.2487 79.4668 19.1918 79.5301 19.1486C79.6033 19.0925 79.6934 19.0341 79.8006 18.9734C78.8632 19.3777 78.0747 19.5196 77.4352 19.3988L77.2753 19.3686C77.0735 19.3268 76.9919 19.1937 77.0306 18.9692L77.1746 18.1188C77.2134 17.8943 77.3457 17.807 77.5718 17.8571C78.2777 17.9573 78.9821 18.3 79.6847 18.8853L79.7619 18.944C79.7347 18.9131 79.701 18.8773 79.6608 18.8366C79.6304 18.783 79.5888 18.731 79.5357 18.6805C79.4812 18.6187 79.4258 18.5512 79.3697 18.4781C79.3234 18.3921 79.2715 18.3068 79.2138 18.2223C79.1546 18.1265 79.0947 18.0251 79.034 17.9179C78.9846 17.8092 78.9352 17.7006 78.8858 17.5919C78.787 17.3745 78.7191 17.1299 78.6822 16.858Z" fill="white"/>
<path fill-rule="evenodd" clip-rule="evenodd" d="M69.5467 101.42C67.9182 98.1014 67.0032 94.3699 67.0032 90.4238C67.0032 76.6168 78.1962 65.4238 92.0032 65.4238C98.7273 65.4238 104.831 68.0789 109.324 72.3972C95.9204 75.1433 87.6133 82.1111 82.4973 91.6565L82.4977 91.658C90.4992 83.4224 100.32 74.8861 117.418 73.963C112.419 104.856 80.7908 113.567 56.2656 102.283C72.202 105.611 92.023 104.725 108.912 85.0625C98.3098 94.1312 83.0275 100.968 69.5467 101.42Z" fill="#03221B"/>
<path fill-rule="evenodd" clip-rule="evenodd" d="M92.0028 115.424C85.3129 115.424 79.2365 112.796 74.75 108.516C83.5345 109.025 92.4084 107.284 100.076 102.835C107.704 98.41 113.058 91.9264 116.219 84.1934C116.731 86.1851 117.003 88.2724 117.003 90.4237C117.003 104.231 105.81 115.424 92.0028 115.424Z" fill="white"/>
</svg>
